<svg width="27" height="18" viewBox="0 0 27 18" fill="none" xmlns="http://www.w3.org/2000/svg">
<rect x="0.5" y="0.5" width="8" height="7" stroke="#3C5896" stroke-linecap="round" stroke-linejoin="round"/>
<path d="M21.5 1C21.5 0.723858 21.2761 0.5 21 0.5H18C17.1716 0.5 16.5 1.17157 16.5 2C16.5 2.82843 17.1716 3.5 18 3.5H21C21.2761 3.5 21.5 3.27614 21.5 3V1Z" stroke="#3C5896" stroke-linecap="round" stroke-linejoin="round"/>
<line x1="14.5" y1="2" x2="16.5" y2="2" stroke="#3C5896" stroke-linecap="round"/>
<line x1="11.5" y1="14.5" x2="19.5" y2="14.5" stroke="#3C5896" stroke-linecap="round"/>
<line x1="0.5" y1="2.5" x2="8.5" y2="2.5" stroke="#3C5896" stroke-linecap="round"/>
<circle cx="7.5" cy="14.5" r="3" stroke="#3C5896"/>
<circle cx="21.5" cy="14.5" r="3" stroke="#3C5896"/>
<path d="M1.5 14C1.5 14.2761 1.72386 14.5 2 14.5H12C12.2761 14.5 12.5 14.2761 12.5 14V9C12.5 8.17157 11.8284 7.5 11 7.5H8C4.41015 7.5 1.5 10.4101 1.5 14Z" fill="#FBFBFB" stroke="#3C5896" stroke-linecap="round" stroke-linejoin="round"/>
<path d="M26 14.5C26.2761 14.5 26.5 14.2761 26.5 14V13.5C26.5 11.2909 24.7091 9.5 22.5 9.5C20.2909 9.5 18.5 11.2909 18.5 13.5V14C18.5 14.2761 18.7239 14.5 19 14.5H26Z" fill="#FBFBFB" stroke="#3C5896" stroke-linecap="round" stroke-linejoin="round"/>
<path d="M20.4903 3.90194C20.4435 3.66823 20.2383 3.5 20 3.5L18 3.5C17.8674 3.5 17.7402 3.55268 17.6464 3.64645C17.5527 3.74021 17.5 3.86739 17.5 4L17.5 14C17.5 14.2761 17.7239 14.5 18 14.5L18.3406 14.5C20.5493 14.5 22.2058 12.4794 21.7726 10.3136L20.4903 3.90194Z" fill="#FBFBFB" stroke="#3C5896" stroke-linecap="round" stroke-linejoin="round"/>
</svg>
