<svg width="101" height="64" viewBox="0 0 101 64" fill="none" xmlns="http://www.w3.org/2000/svg">
<path d="M79.125 55.2978C77.549 57.0297 74.6673 59.0628 72.1187 60.2391L72.0508 60.2698L72.1041 60.3231C72.2536 60.4822 72.3874 60.6553 72.5037 60.84L72.5291 60.88L72.5704 60.8586C73.8127 60.2542 75.0083 59.5581 76.1475 58.7763V63.6524H76.9468V58.5006C76.9904 58.4939 77.0319 58.4771 77.0678 58.4514C77.1037 58.4257 77.133 58.3919 77.1533 58.3527L77.1653 58.31L77.1253 58.2901C77.0974 58.2754 77.0387 58.2461 76.9788 58.2194C77.9139 57.5455 78.7974 56.8027 79.622 55.9973C79.6481 55.9997 79.6744 55.9997 79.7006 55.9973C79.7426 56 79.7847 55.9927 79.8233 55.976C79.862 55.9594 79.8962 55.9338 79.9231 55.9013L79.9564 55.86L79.157 55.2632L79.125 55.2978Z" fill="#E0D268"/>
<path d="M86.8159 56.8126C86.8667 56.8061 86.914 56.7829 86.9504 56.7468C86.9867 56.7107 87.0102 56.6636 87.0171 56.6128L87.0237 56.5595H86.9598C87.6432 56.385 88.3387 56.1758 88.7996 56.0053C88.8834 56.0256 88.9716 56.0157 89.0488 55.9773L89.11 55.948L88.5318 55.3045L88.4972 55.3192C87.7818 55.6309 85.7275 56.2597 82.5714 56.6368L82.5007 56.6461L82.5314 56.7114C82.6133 56.8872 82.6793 57.07 82.7286 57.2576L82.7406 57.3002H82.7845C83.8719 57.1774 84.9525 56.9995 86.0219 56.7673V57.0338C86.0219 57.6466 86.0099 58.1795 85.9726 58.7004H82.0078V59.4371H85.9113C85.6848 61.217 84.9534 62.2962 83.4 63.1488L83.3294 63.1874L83.3934 63.2354C83.5823 63.373 83.7605 63.5249 83.9263 63.6897L83.9542 63.719L83.9889 63.699C85.6662 62.7478 86.4549 61.5101 86.7027 59.4358H90.0519V58.6991H86.7626C86.7986 58.0969 86.8079 57.4454 86.8159 56.8126Z" fill="#E0D268"/>
<path d="M92.0157 60.9254C91.9677 61.9912 91.8078 62.7172 91.5267 63.1316L91.4961 63.1769L91.9584 63.45L91.985 63.4113C92.3847 62.8558 92.4833 61.8846 92.5312 61.0133V60.968L92.0157 60.8721V60.9254Z" fill="#E0D268"/>
<path d="M93.1431 61.0171L92.6875 61.0797L92.6955 61.1317C92.7971 61.7199 92.8452 62.316 92.8394 62.9129V62.9755L93.327 62.9022V62.8583C93.3279 62.2563 93.2698 61.6557 93.1538 61.065L93.1431 61.0171Z" fill="#E0D268"/>
<path d="M100.687 63.3565C99.6879 62.721 99.0364 61.4141 98.698 59.3598H100.279V55.3377H96.4305V59.0787C96.4305 60.6041 96.3106 62.3267 95.4247 63.5324L95.3887 63.5803C95.5978 63.2233 95.6978 62.364 95.8243 60.0299L95.8363 59.7914L95.4766 59.7355L95.3434 59.7555H94.3029V58.9001H95.5579V58.27H94.3029V57.444H95.5579V56.8138H94.3029V55.9972H95.759V55.3377H92.082V60.6441H92.7402V60.3949H95.1382C95.1076 60.8972 95.0769 61.3395 95.045 61.7112C94.9074 61.3558 94.7375 61.0137 94.5374 60.6894L94.5147 60.6534L94.0911 60.8159L94.123 60.8679C94.3669 61.2666 94.5615 61.6933 94.7026 62.1389L94.7172 62.1975L95.017 62.0642C94.8838 63.3285 94.7505 63.3286 94.5227 63.3286C94.4055 63.3286 94.0844 63.3206 93.702 63.2912L93.6021 63.2833L93.6541 63.3685C93.733 63.5307 93.7822 63.7058 93.7993 63.8854V63.9281H93.8433C94.0604 63.9374 94.2842 63.9467 94.4668 63.9467C94.8864 63.9467 95.1076 63.9067 95.3114 63.6709C95.3355 63.6428 95.3569 63.6124 95.3754 63.5803L95.4326 63.607C95.6133 63.6933 95.7821 63.8026 95.9349 63.9321L95.9775 63.9747L96.0135 63.9254C96.9607 62.6331 97.1046 60.712 97.1246 59.3571H98.0065C98.3503 61.6552 99.0604 63.1634 100.177 63.9667L100.223 64L100.251 63.9494C100.366 63.7568 100.511 63.5841 100.68 63.4378L100.736 63.3925L100.687 63.3565ZM93.6421 58.9001V59.7555H92.7388V58.9001H93.6421ZM93.6421 57.444V58.27H92.7388V57.444H93.6421ZM93.6421 55.9972V56.8138H92.7388V55.9972H93.6421ZM99.5826 56.0451V58.6537H97.1379V56.0451H99.5826Z" fill="#E0D268"/>
<path d="M93.8311 62.6503L94.2974 62.5277V62.4838C94.2212 61.9449 94.0752 61.4183 93.8631 60.917L93.8458 60.8771L93.4102 60.977L93.4315 61.0329C93.6263 61.5343 93.7605 62.0571 93.8311 62.5903V62.6503Z" fill="#E0D268"/>
<path d="M0 50.3471L1.03116 49.1175C1.32555 48.7655 1.48683 48.3213 1.48679 47.8625V39.3134C1.48703 38.8542 1.32574 38.4095 1.03116 38.0571L0 36.8275H5.69537L4.66288 38.0598C4.36837 38.4101 4.20701 38.8531 4.20725 39.3108V47.8638C4.20701 48.3215 4.36837 48.7645 4.66288 49.1148L5.69537 50.3471H0Z" fill="#FF8C91"/>
<path d="M12.0553 45.1634C11.3119 43.9804 10.0955 43.0505 8.69266 42.4763C8.52154 42.9646 8.43591 43.4789 8.43954 43.9964C8.43954 46.6835 10.8562 48.8298 13.3062 49.4719C12.5821 50.1654 11.6217 50.5582 10.6191 50.571C8.28766 50.571 6.39453 48.4074 6.39453 45.7376C6.39453 43.0678 8.28766 41.124 10.6191 41.124C12.1405 41.124 13.4581 42.0366 14.2015 43.4048L12.0553 45.1634Z" fill="#FF8C91"/>
<path d="M21.4161 50.347V45.3617C21.4144 44.7931 21.1877 44.2482 20.7856 43.8461C20.3835 43.4439 19.8386 43.2172 19.2699 43.2155H18.7463V47.865C18.7464 48.3222 18.9077 48.7647 19.2019 49.1147L20.2344 50.347H14.5391L15.5702 49.116C15.8645 48.7646 16.0258 48.3208 16.0259 47.8624V40.1526C16.0258 39.8967 15.9752 39.6434 15.8772 39.407C15.7791 39.1706 15.6354 38.9559 15.4543 38.7751L14.9774 38.2982L18.745 35.222V42.6067L20.8912 40.8494C22.8017 41.1159 24.1526 42.9624 24.1526 44.9554V47.861C24.1529 48.3203 24.3162 48.7646 24.6135 49.1147L25.6567 50.347H21.4161Z" fill="#FF8C91"/>
<path d="M26.6602 50.3471L27.6913 49.1161C27.9854 48.7651 28.1467 48.3218 28.1469 47.8638V45.7975C28.1476 45.2809 27.9435 44.7851 27.5794 44.4186L27.1025 43.9417L30.8701 40.8668V47.8625C30.8705 48.3214 31.0323 48.7656 31.327 49.1175L32.3582 50.3471H26.6602Z" fill="#FF8C91"/>
<path d="M28.1445 37.8026H30.865V40.0501H30.392C30.0969 40.0501 29.8046 39.9919 29.532 39.879C29.2593 39.766 29.0115 39.6005 28.8028 39.3918C28.5941 39.1831 28.4286 38.9353 28.3156 38.6626C28.2027 38.39 28.1445 38.0977 28.1445 37.8026Z" fill="#FF8C91"/>
<path d="M43.1479 50.7014C41.5079 50.7014 39.7507 50.2112 38.3984 49.236L40.7472 47.3255L44.3443 49.6583C44.7333 49.0321 44.9025 48.4912 44.9025 48.0023C44.9025 45.1286 39.1565 44.1388 39.1565 40.4817C39.1565 38.2169 40.8804 36.5782 43.3131 36.5782C44.9864 36.5782 46.1868 37.2537 47.3525 38.1676L44.9691 40.0927L41.4746 37.9771C41.3065 38.3191 41.2155 38.6939 41.2082 39.0749C41.2082 41.9645 47.4431 42.8052 47.4431 46.8312C47.4391 49.1134 45.446 50.7014 43.1479 50.7014Z" fill="#FF8C91"/>
<path d="M52.9355 43.2662V47.5761L53.9826 48.6232L51.3634 50.7695C50.9757 50.1953 50.215 49.1814 50.215 47.3216V43.2662H48.1367V41.7288H50.215V40.9508L49.1679 39.9036L52.9355 36.8275V41.7288H55.0191V43.2662H52.9355Z" fill="#FF8C91"/>
<path d="M62.6168 50.7693L61.6535 48.8602L59.3221 50.7693C57.4969 49.6543 56.1953 47.6092 56.1953 45.4297C56.1953 42.4548 58.3922 41.0865 60.7583 41.0865C61.7721 41.0865 63.175 41.4249 64.1888 42.1004V47.5759L65.236 48.6231L62.6168 50.7693ZM61.467 43.8749L58.3589 42.5227C58.217 42.9122 58.1479 43.3245 58.1551 43.7391C58.1551 45.7374 59.7444 47.4227 61.467 48.4019V43.8749Z" fill="#FF8C91"/>
<path d="M70.8978 43.2662V47.5761L71.9422 48.6272L69.323 50.7735C68.934 50.1993 68.1746 49.1854 68.1746 47.3256V43.2662H66.0977V41.7288H68.1773V40.9508L67.1288 39.9036L70.8978 36.8275V41.7288H72.9761V43.2662H70.8978Z" fill="#FF8C91"/>
<path d="M73.8203 50.3471L74.8515 49.1161C75.146 48.7648 75.3073 48.3209 75.3071 47.8625V45.7988C75.3084 45.2817 75.1042 44.7852 74.7396 44.4186L74.2626 43.9417L78.0316 40.8668V47.8638C78.0318 48.3218 78.1931 48.7651 78.4872 49.1161L79.5184 50.3471H73.8203Z" fill="#FF8C91"/>
<path d="M75.3086 37.8026H78.029V40.0501H77.5561C76.96 40.0501 76.3884 39.8133 75.9669 39.3918C75.5454 38.9703 75.3086 38.3986 75.3086 37.8026Z" fill="#FF8C91"/>
<path d="M84.6699 50.5671C82.3371 50.5671 80.4453 48.5048 80.4453 45.835C80.4453 43.1651 82.3371 41.1201 84.6699 41.1201C87.0027 41.1201 88.8944 43.1651 88.8944 45.8296C88.8944 48.4941 86.9973 50.5671 84.6699 50.5671ZM82.7434 42.4724C82.5717 42.9606 82.486 43.4749 82.4903 43.9924C82.4903 46.3425 84.3555 48.3023 86.5963 49.2149C86.7612 48.7189 86.8466 48.2001 86.8494 47.6775C86.8494 45.3287 84.991 43.3849 82.7434 42.4724Z" fill="#FF8C91"/>
<path d="M96.6284 50.3471V45.3618C96.6267 44.7931 96.4 44.2482 95.9978 43.8461C95.5957 43.444 95.0508 43.2173 94.4822 43.2155H93.9586V47.8638C93.9588 48.3215 94.1196 48.7647 94.4129 49.1161L95.4454 50.3471H89.75L90.7812 49.1161C91.0758 48.7647 91.2376 48.321 91.2381 47.8624V44.7916C91.2382 44.2795 91.0367 43.7881 90.6772 43.4234L90.207 42.9451L92.8262 40.7988L93.8067 42.7426L96.1048 40.8668C98.014 41.1199 99.3489 42.9624 99.3489 44.9555V47.8638C99.3489 48.3218 99.5102 48.7651 99.8045 49.1161L100.836 50.3471H96.6284Z" fill="#FF8C91"/>
<path d="M65.6473 12.4539L63.7075 7.08225L53.2587 10.8578V0H50.405H47.5513V10.8578L37.1025 7.08225L35.1641 12.4539L45.8101 15.8844L39.1795 25.005L44.1168 28.4422L50.405 18.9686L56.6932 28.4422L61.6306 25.005L55.0013 15.8844L65.6473 12.4539Z" fill="#3C5896"/>
</svg>
