<svg width="12" height="12" viewBox="0 0 12 12" fill="none" xmlns="http://www.w3.org/2000/svg">
<path fill-rule="evenodd" clip-rule="evenodd" d="M11.7795 0.220295C11.8493 0.289949 11.9047 0.372695 11.9425 0.463794C11.9803 0.554893 11.9998 0.652555 11.9998 0.751185C11.9998 0.849816 11.9803 0.947477 11.9425 1.03858C11.9047 1.12968 11.8493 1.21242 11.7795 1.28208L1.28168 11.7799C1.14088 11.9207 0.949914 11.9998 0.750792 11.9998C0.551669 11.9998 0.360702 11.9207 0.219902 11.7799C0.0791009 11.6391 1.48358e-09 11.4481 0 11.249C-1.48358e-09 11.0499 0.0791009 10.8589 0.219902 10.7181L10.7177 0.220295C10.7874 0.150465 10.8701 0.0950616 10.9612 0.0572597C11.0523 0.0194579 11.15 0 11.2486 0C11.3472 0 11.4449 0.0194579 11.536 0.0572597C11.6271 0.0950616 11.7099 0.150465 11.7795 0.220295Z" fill="#FF3030"/>
<path fill-rule="evenodd" clip-rule="evenodd" d="M0.220295 0.220295C0.150465 0.289949 0.0950616 0.372695 0.0572597 0.463794C0.0194579 0.554893 0 0.652555 0 0.751185C0 0.849816 0.0194579 0.947477 0.0572597 1.03858C0.0950616 1.12968 0.150465 1.21242 0.220295 1.28208L10.7181 11.7799C10.8589 11.9207 11.0499 11.9998 11.249 11.9998C11.4481 11.9998 11.6391 11.9207 11.7799 11.7799C11.9207 11.6391 11.9998 11.4481 11.9998 11.249C11.9998 11.0499 11.9207 10.8589 11.7799 10.7181L1.28208 0.220295C1.21242 0.150465 1.12968 0.0950616 1.03858 0.0572597C0.947477 0.0194579 0.849816 0 0.751185 0C0.652555 0 0.554893 0.0194579 0.463794 0.0572597C0.372695 0.0950616 0.289949 0.150465 0.220295 0.220295Z" fill="#FF3030"/>
</svg>
