<svg width="21" height="20" viewBox="0 0 21 20" fill="none" xmlns="http://www.w3.org/2000/svg">
<line x1="3" y1="0.5" x2="18" y2="0.5" stroke="#3C5896"/>
<line x1="3" y1="19.5" x2="18" y2="19.5" stroke="#3C5896"/>
<line x1="2.5" y1="20" x2="2.5" y2="9" stroke="#3C5896"/>
<line x1="18.5" y1="20" x2="18.5" y2="9" stroke="#3C5896"/>
<path d="M3 3L18 3L20 9H1L3 3Z" stroke="#3C5896" stroke-linejoin="round"/>
<rect x="5" y="9" width="11" height="4" stroke="#3C5896"/>
<path d="M12 5.8136L11.8091 5.24701L10.7808 5.64525V4.5H10.4999H10.2191V5.64525L9.19077 5.24701L9 5.8136L10.0477 6.17544L9.39517 7.13745L9.88108 7.5L10.4999 6.50075L11.1188 7.5L11.6047 7.13745L10.9523 6.17544L12 5.8136Z" fill="#3C5896"/>
</svg>
