<svg width="56" height="56" viewBox="0 0 56 56" fill="none" xmlns="http://www.w3.org/2000/svg">
<rect width="56" height="56" rx="8" fill="#3C5896"/>
<path d="M35.5 35.5L30.5 30.5L35.5 35.5ZM32.1667 26.3333C32.1667 27.0994 32.0158 27.8579 31.7226 28.5657C31.4295 29.2734 30.9998 29.9164 30.4581 30.4581C29.9164 30.9998 29.2734 31.4295 28.5657 31.7226C27.8579 32.0158 27.0994 32.1667 26.3333 32.1667C25.5673 32.1667 24.8087 32.0158 24.101 31.7226C23.3933 31.4295 22.7502 30.9998 22.2085 30.4581C21.6669 29.9164 21.2372 29.2734 20.944 28.5657C20.6509 27.8579 20.5 27.0994 20.5 26.3333C20.5 24.7862 21.1146 23.3025 22.2085 22.2085C23.3025 21.1146 24.7862 20.5 26.3333 20.5C27.8804 20.5 29.3642 21.1146 30.4581 22.2085C31.5521 23.3025 32.1667 24.7862 32.1667 26.3333Z" stroke="white" stroke-width="2" stroke-linecap="round" stroke-linejoin="round"/>
</svg>
